<svg height="512" viewBox="0 0 64 64" width="512" xmlns="http://www.w3.org/2000/svg"><path d="m25 47h14a10 10 0 0 1 10 10v4h-34v-4a10 10 0 0 1 10-10z" fill="#2488ff"/><circle cx="32" cy="49" fill="#e0e0e2" r="5"/><path d="m22 31v6h-2a2.006 2.006 0 0 1 -2-2v-2a2.006 2.006 0 0 1 2-2z" fill="#dfbf95"/><path d="m46 33v2a2.006 2.006 0 0 1 -2 2h-2v-6h2a2.006 2.006 0 0 1 2 2z" fill="#dfbf95"/><path d="m22 28h20a0 0 0 0 1 0 0v12a10 10 0 0 1 -10 10 10 10 0 0 1 -10-10v-12a0 0 0 0 1 0 0z" fill="#ffdaaa"/><path d="m35 27v2a3 3 0 0 1 -6 0v-2z" fill="#004fac"/><path d="m41 16a9 9 0 0 1 -6 8.48v2.52h-6v-2.52a9.015 9.015 0 0 1 -6-8.77 9.116 9.116 0 0 1 8.74-8.71 9 9 0 0 1 9.26 9z" fill="#ffda44"/><path d="m41.073 46.207a10.929 10.929 0 0 0 1.927-6.207v-2h1a3 3 0 0 0 3-3v-2a3 3 0 0 0 -3-3h-1v-1h1v-2h-6v2h3v11a9 9 0 0 1 -18 0v-11h3v-2h-7v2h2v1h-1a3 3 0 0 0 -3 3v2a3 3 0 0 0 3 3h1v2a10.929 10.929 0 0 0 1.927 6.207 11.046 11.046 0 0 0 -8.927 10.793v4a1 1 0 0 0 1 1h34a1 1 0 0 0 1-1v-4a11.046 11.046 0 0 0 -8.927-10.793zm2.927-14.207a1 1 0 0 1 1 1v2a1 1 0 0 1 -1 1h-1v-4zm-8.243 18.325a3.976 3.976 0 0 1 -7.514 0 10.793 10.793 0 0 0 7.514 0zm-15.757-14.325a1 1 0 0 1 -1-1v-2a1 1 0 0 1 1-1h1v4zm28 24h-32v-3a9.03 9.03 0 0 1 8.5-8.976 11.142 11.142 0 0 0 1.511 1.19 5.993 5.993 0 0 0 11.978 0 11.142 11.142 0 0 0 1.511-1.19 9.03 9.03 0 0 1 8.5 8.976z"/><path d="m27 34v2a1 1 0 0 0 2 0v-2a1 1 0 0 0 -2 0z"/><path d="m35 34v2a1 1 0 0 0 2 0v-2a1 1 0 0 0 -2 0z"/><path d="m42 16a10 10 0 0 0 -10.291-10 10.129 10.129 0 0 0 -9.7 9.677 9.963 9.963 0 0 0 6 9.476v.847h-1.009v2h1v1a4 4 0 0 0 8 0v-1h1v-2h-1v-.844a10.012 10.012 0 0 0 6-9.156zm-8 13a2 2 0 0 1 -4 0v-1h4zm-4-3v-1.523a1 1 0 0 0 -.667-.943 7.975 7.975 0 0 1 -5.333-7.791 8.1 8.1 0 0 1 7.766-7.743h.236a8 8 0 0 1 2.665 15.534 1 1 0 0 0 -.667.943v1.523z"/><path d="m36 18h2v-2h-1.465l-1.7-2.555a1 1 0 0 0 -1.539-.152l-1.296 1.293-1.293-1.293a1 1 0 0 0 -1.539.152l-1.703 2.555h-1.465v2h2a1 1 0 0 0 .832-.445l1.323-1.986 1.138 1.138a1 1 0 0 0 1.414 0l1.138-1.138 1.323 1.986a1 1 0 0 0 .832.445z"/><path d="m31 2h2v2h-2z"/><path d="m24.5 3.742h1.999v1.999h-1.999z" transform="matrix(.866 -.5 .5 .866 1.047 13.389)"/><path d="m19.742 8.5h2v2h-2z" transform="matrix(.5 -.866 .866 .5 2.145 22.715)"/><path d="m18 15h2v2h-2z"/><path d="m19.742 21.5h2v2h-2z" transform="matrix(.866 -.5 .5 .866 -8.47 13.383)"/><path d="m42.258 21.5h2v2h-2z" transform="matrix(.5 -.866 .866 .5 2.146 48.717)"/><path d="m44 15h2v2h-2z"/><path d="m42.258 8.5h2v2h-2z" transform="matrix(.866 -.5 .5 .866 1.044 22.898)"/><path d="m37.5 3.742h1.999v1.999h-1.999z" transform="matrix(.5 -.866 .866 .5 15.139 35.709)"/></svg>