<?xml version="1.0"?>
<svg xmlns="http://www.w3.org/2000/svg" xmlns:xlink="http://www.w3.org/1999/xlink" version="1.1" id="Capa_1" x="0px" y="0px" viewBox="0 0 23.577 23.577" style="enable-background:new 0 0 23.577 23.577;" xml:space="preserve" width="512px" height="512px" class=""><g><g>
	<g>
		<path d="M8.25,9.498c0-1.66-0.82-2.462-2.069-2.462c-0.495,0-0.872,0.056-1.066,0.131v4.886    c0.247,0.093,0.559,0.131,0.936,0.131C7.417,12.184,8.25,11.232,8.25,9.498z" data-original="#030104" class="active-path" data-old_color="#030104" fill="#CA5B11"/>
		<path d="M0,19.281l13.364,3.457V0.839L0,4.298V19.281z M3.983,5.992c0.546-0.131,1.261-0.243,2.172-0.243    c1.12,0,1.938,0.373,2.458,1.045c0.482,0.597,0.768,1.511,0.768,2.63c0,1.137-0.234,2.034-0.676,2.686    c-0.599,0.914-1.574,1.38-2.68,1.38c-0.338,0-0.65-0.02-0.91-0.113v5.037H3.983V5.992z" data-original="#030104" class="active-path" data-old_color="#030104" fill="#CA5B11"/>
		<path d="M14.141,3.411v17.546h9.436V3.411H14.141z M17.223,4.923h3.954v5.337h-0.454V5.353h-3.5V4.923z     M16.539,5.582h0.454h3.5v4.907v0.43l-3.954-0.004V5.582z M18.714,19.242c-1.27,0-2.298-1.029-2.298-2.299    s1.028-2.299,2.298-2.299v2.299h2.299C21.013,18.213,19.984,19.242,18.714,19.242z M19.002,16.656v-2.299    c1.27,0,2.299,1.029,2.299,2.299H19.002z" data-original="#030104" class="active-path" data-old_color="#030104" fill="#CA5B11"/>
	</g>
</g></g> </svg>
