<svg height="509pt" viewBox="-6 0 509 509" width="509pt" xmlns="http://www.w3.org/2000/svg"><path d="m483.441406 329.792969h-469.441406c-5.523438 0-10-4.476563-10-10v-305.792969c0-5.523438 4.476562-10 10-10h469.441406c5.519532 0 10 4.476562 10 10v305.792969c0 5.523437-4.480468 10-10 10zm0 0" fill="#d8d6d7"/><path d="m467.441406 40v253.800781c0 5.519531-4.480468 10-10 10h-417.441406c-5.519531 0-10-4.480469-10-10v-253.800781c0-5.519531 4.480469-10 10-10h417.441406c5.519532 0 10 4.480469 10 10zm0 0" fill="#56c1b3"/><path d="m467.441406 40v253.800781c0 5.519531-4.480468 10-10 10h-373.941406c-5.523438 0-10-4.480469-10-10v-253.800781c0-5.523438 4.476562-10 10-10h373.941406c5.519532 0 10 4.476562 10 10zm0 0" fill="#7befe4"/><path d="m221.058594 329.800781h55.320312v131.859375h-55.320312zm0 0" fill="#d8d6d7"/><path d="m254.898438 329.800781h21.480468v131.859375h-21.480468zm0 0" fill="#fff"/><path d="m376.058594 471.660156v23.339844c0 5.519531-4.480469 10-10 10h-234.679688c-5.519531 0-10-4.480469-10-10v-23.339844c0-5.519531 4.480469-10 10-10h234.679688c5.519531 0 10 4.480469 10 10zm0 0" fill="#d8d6d7"/><path d="m376.058594 471.660156v23.339844c0 5.519531-4.480469 10-10 10h-202.679688c-5.519531 0-10-4.480469-10-10v-23.339844c0-5.519531 4.480469-10 10-10h202.679688c5.519531 0 10 4.480469 10 10zm0 0" fill="#fff"/><path d="m309.71875 281.960938h-244.523438c-5.523437 0-10-4.480469-10-10v-210.125c0-5.523438 4.476563-10 10-10h244.523438c5.523438 0 10 4.476562 10 10v210.125c0 5.519531-4.476562 10-10 10zm0 0" fill="#f85252"/><path d="m319.71875 89.5v182.460938c0 5.519531-4.480469 10-10 10h-244.519531c-5.519531 0-10-4.480469-10-10v-210.121094c0-5.519532 4.480469-10 10-10h59.5625l27.316406 33.941406c1.902344 2.359375 4.761719 3.71875 7.78125 3.71875zm0 0" fill="#d8d6d7"/><path d="m319.71875 89.5v182.460938c0 5.519531-4.480469 10-10 10h-236.21875v-230.121094h51.261719l27.316406 33.941406c1.902344 2.359375 4.761719 3.71875 7.78125 3.71875zm0 0" fill="#fff"/><path d="m281.792969 173.714844h-191.757813c-5.519531 0-10-4.480469-10-10v-33.867188c0-5.523437 4.480469-10 10-10h191.757813c5.523437 0 10 4.476563 10 10v33.867188c0 5.519531-4.476563 10-10 10zm0 0" fill="#f85252"/><path d="m168.785156 254.5h-78.75c-5.519531 0-10-4.476562-10-10v-45.410156c0-5.523438 4.480469-10 10-10h78.753906c5.519532 0 10 4.476562 10 10v45.410156c-.003906 5.523438-4.480468 10-10.003906 10zm0 0" fill="#40c4df"/><path d="m281.792969 213.53125h-74.253907c-5.523437 0-10-4.476562-10-10v-4.441406c0-5.523438 4.476563-10 10-10h74.253907c5.523437 0 10 4.476562 10 10v4.441406c0 5.523438-4.476563 10-10 10zm0 0" fill="#40c4df"/><path d="m281.792969 254.5h-74.253907c-5.523437 0-10-4.476562-10-10v-4.441406c0-5.523438 4.476563-10 10-10h74.253907c5.523437 0 10 4.476562 10 10v4.441406c0 5.523438-4.476563 10-10 10zm0 0" fill="#40c4df"/><path d="m493.441406 255.480469v229.519531c0 11.058594-8.960937 20-20 20h-109.402344c-11.039062 0-20-8.941406-20-20v-229.519531c0-11.058594 8.960938-20 20-20h109.402344c11.039063 0 20 8.941406 20 20zm0 0" fill="#1c868e"/><path d="m493.441406 255.480469v229.519531c0 11.058594-8.960937 20-20 20h-81.902344c-11.039062 0-20-8.941406-20-20v-229.519531c0-11.058594 8.960938-20 20-20h81.902344c11.039063 0 20 8.941406 20 20zm0 0" fill="#40c4df"/><path d="m344.039062 281.238281h149.402344v178h-149.402344zm0 0" fill="#d8d6d7"/><path d="m371.539062 281.238281h121.902344v178h-121.902344zm0 0" fill="#fff"/><path d="m477 310.578125v36c0 5.523437-4.480469 10-10 10h-96.5c-5.539062 0-10-4.476563-10-10v-36c0-5.519531 4.460938-10 10-10h96.5c5.519531 0 10 4.480469 10 10zm0 0" fill="#d73735"/><path d="m477 310.578125v36c0 5.523437-4.480469 10-10 10h-95.460938v-56h95.460938c5.519531 0 10 4.480469 10 10zm0 0" fill="#f85252"/><path d="m416.738281 382.578125v47.320313c0 5.523437-4.476562 10-10 10h-36.238281c-5.539062 0-10-4.476563-10-10v-47.320313c0-5.519531 4.460938-10 10-10h36.238281c5.523438 0 10 4.480469 10 10zm0 0" fill="#1c868e"/><path d="m416.738281 382.578125v47.320313c0 5.523437-4.476562 10-10 10h-35.199219v-67.320313h35.199219c5.523438 0 10 4.480469 10 10zm0 0" fill="#40c4df"/><path d="m466.988281 399.238281h-23.582031c-5.523438 0-10-4.476562-10-10v-6.664062c0-5.523438 4.476562-10 10-10h23.582031c5.523438 0 10 4.476562 10 10v6.664062c0 5.523438-4.476562 10-10 10zm0 0" fill="#40c4df"/><path d="m466.988281 439.90625h-23.582031c-5.523438 0-10-4.476562-10-10v-6.667969c0-5.519531 4.476562-10 10-10h23.582031c5.523438 0 10 4.480469 10 10v6.667969c0 5.523438-4.476562 10-10 10zm0 0" fill="#40c4df"/><path d="m401.269531 259.238281c0 4.144531-3.359375 7.5-7.5 7.5-4.144531 0-7.5-3.355469-7.5-7.5 0-4.140625 3.355469-7.5 7.5-7.5 4.140625 0 7.5 3.359375 7.5 7.5zm0 0" fill="#fff"/><path d="m438.238281 483.359375c0 5.542969-4.5 10-10 10h-19c-5.519531 0-10-4.480469-10-10 0-5.542969 4.503907-10 10-10h19c5.523438 0 10 4.480469 10 10zm0 0" fill="#d8d6d7"/><path d="m438.238281 483.359375c0 5.542969-4.5 10-10 10h-8.660156c-5.519531 0-10-4.480469-10-10 0-5.496094 4.484375-10 10-10h8.660156c5.523438 0 10 4.480469 10 10zm0 0" fill="#fff"/><path d="m277.675781 71c0 4.078125-3.308593 7.386719-7.386719 7.386719-4.082031 0-7.386718-3.308594-7.386718-7.386719s3.304687-7.386719 7.386718-7.386719c4.078126 0 7.386719 3.308594 7.386719 7.386719zm0 0" fill="#fff"/><path d="m304.707031 71c0 4.078125-3.308593 7.386719-7.386719 7.386719-4.078124 0-7.386718-3.308594-7.386718-7.386719s3.308594-7.386719 7.386718-7.386719c4.078126 0 7.386719 3.308594 7.386719 7.386719zm0 0" fill="#fff"/><g fill="#491352"><path d="m483.441406 0h-469.441406c-7.71875 0-14 6.28125-14 14v305.800781c0 7.71875 6.28125 14 14 14h203.058594v123.859375h-85.679688c-7.71875 0-14 6.28125-14 14v23.339844c0 7.71875 6.28125 14 14 14h342.0625c13.238282 0 24-10.761719 24-24v-25.761719c0-6.363281 0-430.832031 0-445.238281 0-7.71875-6.28125-14-14-14zm-475.441406 319.800781v-305.800781c0-3.300781 2.699219-6 6-6h469.441406c3.296875 0 6 2.699219 6 6v223.621094c-5.542968-4.996094-11.199218-6.140625-18-6.140625v-191.480469c0-7.71875-6.28125-14-14-14h-417.441406c-7.71875 0-14 6.28125-14 14v253.800781c0 7.71875 6.28125 14 14 14h300.039062v18c-11.703124 0-308.375 0-326.039062 0-3.300781 0-6-2.699219-6-6zm481.441406 135.4375h-141.402344c0-20.367187 0-149.921875 0-170h141.402344zm-209.0625 2.421875v-123.859375h59.660156v123.859375zm183.0625-226.179687h-99.402344c-13.238281 0-24 10.757812-24 24v44.320312h-300.039062c-3.300781 0-6-2.699219-6-6v-253.800781c0-3.300781 2.699219-6 6-6h417.441406c3.296875 0 6 2.699219 6 6zm-115.402344 45.757812v-21.757812c0-8.820313 7.179688-16 16-16h109.402344c8.820313 0 16 7.179687 16 16v21.757812c-17.78125 0-126.222656 0-141.402344 0zm-122.980468 56.5625h47.320312v123.859375h-47.320312zm-93.679688 167.199219c-3.300781 0-6-2.699219-6-6v-23.339844c0-3.320312 2.699219-6 6-6h208.660156v19.339844c0 6.140625 2.320313 11.761719 6.140626 16zm342.0625 0c-14.855468 0-98.65625 0-109.402344 0-8.820312 0-16-7.179688-16-16 0-17.46875 0-13.960938 0-21.761719h141.402344v21.761719c0 8.820312-7.179687 16-16 16zm0 0"/><path d="m309.71875 47.839844c-28.953125 0-238.605469 0-244.519531 0-7.71875 0-14 6.28125-14 14v210.121094c0 7.71875 6.28125 14 14 14h244.519531c7.722656 0 14-6.28125 14-14v-210.121094c0-7.71875-6.277344-14-14-14zm0 8c3.300781 0 6 2.679687 6 6v23.660156h-155.859375c-1.820313 0-3.519531-.800781-4.660156-2.21875l-22.097657-27.441406zm6 216.121094c0 3.300781-2.699219 6-6 6h-244.519531c-3.320313 0-6-2.699219-6-6v-210.121094c0-3.320313 2.679687-6 6-6h57.640625l26.121094 32.441406c2.660156 3.320312 6.640624 5.21875 10.898437 5.21875h155.859375zm0 0"/><path d="m76.039062 129.839844v33.878906c0 7.722656 6.28125 14 14 14h191.761719c7.71875 0 14-6.277344 14-14v-33.878906c0-7.71875-6.28125-14-14-14h-191.761719c-7.71875 0-14 6.28125-14 14zm211.761719 0v33.878906c0 3.300781-2.699219 6-6 6h-191.761719c-3.320312 0-6-2.699219-6-6v-33.878906c0-3.300782 2.679688-6 6-6h191.761719c3.300781 0 6 2.699218 6 6zm0 0"/><path d="m168.78125 185.078125h-78.742188c-7.71875 0-14 6.300781-14 14v45.421875c0 7.71875 6.28125 14 14 14h78.742188c7.71875 0 14-6.28125 14-14v-45.421875c0-7.699219-6.28125-14-14-14zm6 59.421875c0 3.300781-2.679688 6-6 6h-78.742188c-3.320312 0-6-2.699219-6-6v-45.421875c0-3.296875 2.679688-6 6-6h78.742188c3.320312 0 6 2.703125 6 6zm0 0"/><path d="m281.800781 185.078125h-74.261719c-7.71875 0-14 6.300781-14 14v4.460937c0 7.722657 6.28125 14 14 14h74.261719c7.71875 0 14-6.277343 14-14v-4.460937c0-7.699219-6.28125-14-14-14zm6 18.460937c0 3.300782-2.699219 6-6 6h-74.261719c-3.320312 0-6-2.699218-6-6v-4.460937c0-3.296875 2.679688-6 6-6h74.261719c3.300781 0 6 2.703125 6 6zm0 0"/><path d="m281.800781 226.058594h-74.261719c-7.71875 0-14 6.28125-14 14v4.441406c0 7.71875 6.28125 14 14 14h74.261719c7.71875 0 14-6.28125 14-14v-4.441406c0-7.71875-6.28125-14-14-14zm6 18.441406c0 3.300781-2.699219 6-6 6h-74.261719c-3.320312 0-6-2.699219-6-6v-4.441406c0-3.320313 2.679688-6 6-6h74.261719c3.300781 0 6 2.679687 6 6zm0 0"/><path d="m80.035156 79.5h36.996094c2.207031 0 4-1.792969 4-4s-1.792969-4-4-4h-36.996094c-2.207031 0-4 1.792969-4 4s1.789063 4 4 4zm0 0"/><path d="m467 296.578125c-10.164062 0-86.140625 0-96.5 0-7.746094 0-14 6.300781-14 14v36c0 7.722656 6.28125 14 14 14h96.5c7.71875 0 14-6.277344 14-14 0-13.457031 0-5.75 0-36 0-7.617187-6.179688-14-14-14zm6 50c0 3.300781-2.699219 6-6 6h-96.5c-3.320312 0-6-2.699219-6-6 0-13.457031 0-5.75 0-36 0-3.316406 2.671875-6 6-6h96.5c3.300781 0 6 2.683594 6 6zm0 0"/><path d="m406.738281 368.578125h-36.238281c-7.71875 0-14 6.28125-14 14v47.320313c0 7.722656 6.28125 14 14 14h36.238281c7.722657 0 14-6.277344 14-14v-47.320313c0-7.71875-6.277343-14-14-14zm6 61.320313c0 3.320312-2.699219 6-6 6h-36.238281c-3.320312 0-6-2.679688-6-6v-47.320313c0-3.316406 2.679688-6 6-6h36.238281c3.300781 0 6 2.683594 6 6zm0 0"/><path d="m467 368.578125h-23.601562c-7.71875 0-14 6.28125-14 14v6.660156c0 7.722657 6.28125 14 14 14h23.601562c7.71875 0 14-6.277343 14-14v-6.660156c0-7.71875-6.28125-14-14-14zm6 20.660156c0 3.300781-2.699219 6-6 6h-23.601562c-3.296876 0-6-2.699219-6-6v-6.660156c0-3.316406 2.703124-6 6-6h23.601562c3.300781 0 6 2.683594 6 6zm0 0"/><path d="m467 409.238281h-23.601562c-7.71875 0-14 6.28125-14 14v6.660157c0 7.722656 6.28125 14 14 14h23.601562c7.71875 0 14-6.277344 14-14v-6.660157c0-7.71875-6.28125-14-14-14zm6 20.660157c0 3.320312-2.699219 6-6 6h-23.601562c-3.296876 0-6-2.679688-6-6v-6.660157c0-3.296875 2.703124-6 6-6h23.601562c3.300781 0 6 2.703125 6 6zm0 0"/><path d="m451.210938 255.238281h-35.332032c-2.207031 0-4 1.792969-4 4 0 2.210938 1.792969 4 4 4h35.332032c2.210937 0 4-1.789062 4-4 0-2.207031-1.789063-4-4-4zm0 0"/><path d="m393.761719 247.738281c-6.339844 0-11.5 5.160157-11.5 11.5 0 6.339844 5.160156 11.5 11.5 11.5 6.339843 0 11.5-5.160156 11.5-11.5 0-6.339843-5.160157-11.5-11.5-11.5zm0 15c-1.921875 0-3.5-1.578125-3.5-3.5 0-1.917969 1.578125-3.5 3.5-3.5 1.9375 0 3.5 1.582031 3.5 3.5 0 1.921875-1.5625 3.5-3.5 3.5zm0 0"/><path d="m428.238281 469.359375h-19c-7.71875 0-14 6.28125-14 14s6.28125 14 14 14h19c7.722657 0 14-6.28125 14-14s-6.277343-14-14-14zm0 20h-19c-3.296875 0-6-2.679687-6-6 0-3.300781 2.703125-6 6-6h19c3.300781 0 6 2.699219 6 6 0 3.320313-2.699219 6-6 6zm0 0"/><path d="m439.902344 172.574219-12.808594 12.808593v-44.476562c0-12.386719-10.078125-22.464844-22.46875-22.464844h-41.75l12.8125-12.8125c1.558594-1.5625 1.558594-4.09375 0-5.65625-1.5625-1.5625-4.097656-1.5625-5.65625 0l-19.636719 19.636719c-1.566406 1.5625-1.554687 4.113281 0 5.664063l19.636719 19.632812c.777344.785156 1.804688 1.171875 2.828125 1.171875s2.046875-.386719 2.828125-1.171875c1.558594-1.558594 1.558594-4.09375 0-5.652344l-12.808594-12.8125h41.75c7.976563 0 14.464844 6.492188 14.464844 14.464844v44.480469l-12.808594-12.808594c-1.5625-1.5625-4.097656-1.5625-5.65625 0-1.5625 1.5625-1.5625 4.09375 0 5.65625l19.636719 19.636719c1.535156 1.539062 4.070313 1.589844 5.660156 0l19.636719-19.636719c1.5625-1.5625 1.5625-4.09375 0-5.65625-1.566406-1.566406-4.097656-1.566406-5.660156-.003906zm0 0"/><path d="m270.28125 82.378906c6.277344 0 11.398438-5.097656 11.398438-11.378906s-5.121094-11.378906-11.398438-11.378906c-6.28125 0-11.382812 5.097656-11.382812 11.378906s5.101562 11.378906 11.382812 11.378906zm0-14.757812c1.878906 0 3.398438 1.519531 3.398438 3.378906s-1.519532 3.378906-3.398438 3.378906c-1.859375 0-3.382812-1.519531-3.382812-3.378906s1.523437-3.378906 3.382812-3.378906zm0 0"/><path d="m297.320312 82.378906c6.28125 0 11.378907-5.097656 11.378907-11.378906s-5.097657-11.378906-11.378907-11.378906-11.378906 5.097656-11.378906 11.378906 5.097656 11.378906 11.378906 11.378906zm0-14.757812c1.859376 0 3.378907 1.519531 3.378907 3.378906s-1.519531 3.378906-3.378907 3.378906c-1.859374 0-3.378906-1.519531-3.378906-3.378906s1.519532-3.378906 3.378906-3.378906zm0 0"/></g></svg>